<svg width="20" height="20" viewBox="0 0 20 20" fill="none" xmlns="http://www.w3.org/2000/svg">
<path d="M17.042 17.0421H14.0783V12.4009C14.0783 11.2941 14.0586 9.86991 12.5368 9.86991C10.9934 9.86991 10.7568 11.0753 10.7568 12.3211V17.0421H7.79411V7.49758H10.6395V8.80152H10.679C11.2595 7.81001 12.3377 7.21767 13.4859 7.26005C16.49 7.26005 17.043 9.23617 17.043 11.8056L17.042 17.0421ZM4.44998 6.19265C3.49986 6.19265 2.73011 5.42289 2.73011 4.47278C2.73011 3.52266 3.49986 2.75291 4.44998 2.75291C5.40009 2.75291 6.16984 3.52266 6.16984 4.47278C6.16984 5.42289 5.40009 6.19265 4.44998 6.19265ZM5.93133 17.0421H2.96468V7.49758H5.93133V17.0421ZM18.5194 0.00112022H1.47544C0.670207 -0.00775016 0.00985598 0.637817 0 1.44305V18.557C0.00985598 19.3632 0.670207 20.0088 1.47544 19.9999H18.5194C19.3266 20.0097 19.9899 19.3642 20.0007 18.557V1.44206C19.9889 0.63486 19.3256 -0.010707 18.5194 0.000134579" fill="#676767"/>
</svg>
