<svg width="25" height="25" viewBox="0 0 25 25" fill="none" xmlns="http://www.w3.org/2000/svg">
<g clip-path="url(#clip0_219_25)">
<path d="M10.3526 14.6476C7.96643 12.2614 7.42764 9.87522 7.30609 8.91918C7.27212 8.65484 7.36309 8.38974 7.55221 8.20194L9.48324 6.27177C9.7673 5.98789 9.81771 5.54547 9.6048 5.20496L6.53023 0.430821C6.29467 0.0537727 5.81102 -0.0823077 5.41342 0.116596L0.477642 2.44117C0.156116 2.59949 -0.0330017 2.9411 0.00350404 3.29763C0.262125 5.75453 1.33325 11.7942 7.26859 17.73C13.2039 23.6657 19.2427 24.7364 21.7009 24.995C22.0574 25.0315 22.3991 24.8424 22.5574 24.5209L24.882 19.5851C25.0801 19.1884 24.9449 18.706 24.5695 18.47L19.7953 15.3963C19.455 15.1832 19.0126 15.2332 18.7285 15.517L16.7983 17.4481C16.6105 17.6372 16.3454 17.7281 16.0811 17.6942C15.1251 17.5726 12.7388 17.0338 10.3526 14.6476Z" fill="#F2D295"/>
<path d="M19.8283 13.3623C19.3522 13.3623 18.9663 12.9763 18.9663 12.5002C18.9622 8.93107 16.0699 6.03872 12.5007 6.03468C12.0246 6.03468 11.6387 5.64872 11.6387 5.17262C11.6387 4.69651 12.0246 4.31055 12.5007 4.31055C17.0217 4.31554 20.6854 7.97925 20.6904 12.5002C20.6904 12.9763 20.3044 13.3623 19.8283 13.3623Z" fill="#F2D295"/>
<path d="M24.1387 13.3621C23.6626 13.3621 23.2766 12.9761 23.2766 12.5C23.27 6.55141 18.4493 1.73079 12.5007 1.72414C12.0246 1.72414 11.6387 1.33818 11.6387 0.862069C11.6387 0.385961 12.0246 0 12.5007 0C19.4011 0.00760167 24.9931 5.59959 25.0007 12.5C25.0007 12.7286 24.9099 12.9479 24.7482 13.1096C24.5866 13.2712 24.3673 13.3621 24.1387 13.3621Z" fill="#F2D295"/>
</g>
<defs>
<clipPath id="clip0_219_25">
<rect width="25" height="25" fill="white"/>
</clipPath>
</defs>
</svg>
