<svg width="25" height="21" viewBox="0 0 25 25" fill="none" xmlns="http://www.w3.org/2000/svg">
<g clip-path="url(#clip0_285_878)">
<path d="M17.6937 8.53367C18.0681 8.91514 18.0681 9.5335 17.6937 9.91478L11.2629 16.4663C10.8885 16.8476 10.2817 16.8476 9.90727 16.4663L6.84599 13.3474C6.47154 12.9662 6.47154 12.3478 6.84599 11.9665C7.22024 11.585 7.82722 11.585 8.20148 11.9665L10.585 14.3948L16.338 8.53367C16.7124 8.15239 17.3194 8.15239 17.6937 8.53367ZM24.5397 12.5C24.5397 19.4094 19.051 25 12.2698 25C5.48769 25 0 19.4084 0 12.5C0 5.59063 5.48862 0 12.2698 0C19.052 0 24.5397 5.59158 24.5397 12.5ZM22.6225 12.5C22.6225 6.67019 17.9915 1.95312 12.2698 1.95312C6.54737 1.95312 1.91716 6.67095 1.91716 12.5C1.91716 18.3298 6.54812 23.0469 12.2698 23.0469C17.9923 23.0469 22.6225 18.329 22.6225 12.5Z" fill="#F2D295"/>
</g>
<defs>
<clipPath id="clip0_285_878">
<rect width="24.5397" height="25" fill="white"/>
</clipPath>
</defs>
</svg>
