<svg width="75" height="81" viewBox="0 0 75 81" fill="none" xmlns="http://www.w3.org/2000/svg">
<g clip-path="url(#clip0_304_2863)">
<path d="M59.375 3.96558H15.625C11.4825 3.97063 7.51112 5.64838 4.58194 8.63082C1.65276 11.6133 0.00496206 15.6569 0 19.8747L0 58.0565C0.00496206 62.2743 1.65276 66.3179 4.58194 69.3003C7.51112 72.2828 11.4825 73.9605 15.625 73.9656H59.375C63.5175 73.9605 67.4889 72.2828 70.4181 69.3003C73.3472 66.3179 74.995 62.2743 75 58.0565V19.8747C74.995 15.6569 73.3472 11.6133 70.4181 8.63082C67.4889 5.64838 63.5175 3.97063 59.375 3.96558ZM15.625 10.3292H59.375C61.2462 10.333 63.0735 10.9068 64.6217 11.9768C66.17 13.0468 67.3683 14.564 68.0625 16.3333L44.1312 40.7028C42.3701 42.4888 39.9857 43.4916 37.5 43.4916C35.0143 43.4916 32.6299 42.4888 30.8688 40.7028L6.9375 16.3333C7.63171 14.564 8.83004 13.0468 10.3783 11.9768C11.9265 10.9068 13.7538 10.333 15.625 10.3292ZM59.375 67.6019H15.625C13.1386 67.6019 10.754 66.5963 8.99587 64.8061C7.23772 63.016 6.25 60.5881 6.25 58.0565V24.6474L26.45 45.2019C29.3832 48.1809 33.3571 49.8539 37.5 49.8539C41.6429 49.8539 45.6168 48.1809 48.55 45.2019L68.75 24.6474V58.0565C68.75 60.5881 67.7623 63.016 66.0041 64.8061C64.246 66.5963 61.8614 67.6019 59.375 67.6019Z" fill="#F2D295"/>
</g>
<defs>
<clipPath id="clip0_304_2863">
<rect width="75" height="80" fill="white" transform="translate(0 0.632324)"/>
</clipPath>
</defs>
</svg>
