<svg width="75" height="87" viewBox="0 0 75 87" fill="none" xmlns="http://www.w3.org/2000/svg">
<g clip-path="url(#clip0_304_2856)">
<path d="M40.6259 4.33524C40.6259 3.39028 40.9552 2.48404 41.5412 1.81585C42.1273 1.14767 42.9221 0.772291 43.7509 0.772291C52.0362 0.782665 59.9794 4.5398 65.838 11.2194C71.6965 17.8989 74.9918 26.9554 75.0009 36.4017C75.0009 37.3467 74.6717 38.2529 74.0856 38.9211C73.4996 39.5893 72.7047 39.9647 71.8759 39.9647C71.0471 39.9647 70.2523 39.5893 69.6662 38.9211C69.0802 38.2529 68.7509 37.3467 68.7509 36.4017C68.7435 28.8447 66.1072 21.5997 61.4204 16.2561C56.7336 10.9124 50.3791 7.90667 43.7509 7.89818C42.9221 7.89818 42.1273 7.5228 41.5412 6.85462C40.9552 6.18644 40.6259 5.28019 40.6259 4.33524ZM43.7509 22.15C47.0661 22.15 50.2456 23.6515 52.5898 26.3242C54.934 28.9969 56.2509 32.6219 56.2509 36.4017C56.2509 37.3467 56.5802 38.2529 57.1662 38.9211C57.7523 39.5893 58.5471 39.9647 59.3759 39.9647C60.2047 39.9647 60.9996 39.5893 61.5856 38.9211C62.1717 38.2529 62.5009 37.3467 62.5009 36.4017C62.496 30.7338 60.5189 25.2996 57.0037 21.2917C53.4885 17.2838 48.7222 15.0297 43.7509 15.0241C42.9221 15.0241 42.1273 15.3995 41.5412 16.0676C40.9552 16.7358 40.6259 17.6421 40.6259 18.587C40.6259 19.532 40.9552 20.4382 41.5412 21.1064C42.1273 21.7746 42.9221 22.15 43.7509 22.15ZM72.1666 60.4124C73.9775 62.4829 74.9945 65.2876 74.9945 68.2117C74.9945 71.1358 73.9775 73.9405 72.1666 76.011L69.3228 79.7485C43.7291 107.686 -18.5522 36.6939 5.57281 7.42075L9.16656 3.8578C10.9846 1.85071 13.4226 0.7404 15.9531 0.767071C18.4837 0.793743 20.9033 1.95525 22.6884 4.00032C22.7853 4.11077 28.5759 12.6868 28.5759 12.6868C30.2941 14.7448 31.2506 17.4787 31.2466 20.32C31.2425 23.1614 30.2782 25.8917 28.5541 27.9433L24.9353 33.131C26.938 38.6789 29.8824 43.7209 33.5994 47.9674C37.3164 52.2139 41.7328 55.5811 46.5947 57.8756L51.1728 53.7248C52.9725 51.7606 55.3667 50.6624 57.8581 50.6584C60.3495 50.6544 62.7464 51.745 64.5509 53.7034C64.5509 53.7034 72.0697 60.302 72.1666 60.4124ZM67.8666 65.5929C67.8666 65.5929 60.3884 59.0336 60.2915 58.9231C59.6478 58.1953 58.7779 57.787 57.8712 57.787C56.9646 57.787 56.0947 58.1953 55.4509 58.9231C55.3666 59.0229 49.0634 64.7485 49.0634 64.7485C48.6387 65.134 48.1332 65.3867 47.5967 65.4816C47.0602 65.5766 46.5113 65.5106 46.0041 65.2901C39.7055 62.6164 33.9845 58.4305 29.2285 53.016C24.4726 47.6016 20.7928 41.085 18.4384 33.9077C18.2297 33.3214 18.1616 32.6823 18.2413 32.0562C18.3209 31.43 18.5454 30.8393 18.8916 30.3447C18.8916 30.3447 23.9134 23.1547 23.9978 23.0621C24.6361 22.3281 24.9943 21.3362 24.9943 20.3026C24.9943 19.2689 24.6361 18.2771 23.9978 17.5431C23.9009 17.4362 18.1478 8.90293 18.1478 8.90293C17.4944 8.23491 16.6416 7.87714 15.7642 7.90298C14.8868 7.92882 14.0514 8.33629 13.4291 9.04189L9.83531 12.6048C-7.79594 36.7758 46.1759 94.8982 64.7541 74.8815L67.6009 71.1404C68.2681 70.4359 68.6688 69.4632 68.7183 68.428C68.7679 67.3927 68.4624 66.3761 67.8666 65.5929Z" fill="#F2D295"/>
</g>
<defs>
<clipPath id="clip0_304_2856">
<rect width="75" height="85.5107" fill="white" transform="translate(0 0.772461)"/>
</clipPath>
</defs>
</svg>
