<svg width="52" height="52" viewBox="0 0 52 52" fill="none" xmlns="http://www.w3.org/2000/svg">
<circle cx="26" cy="26" r="26" fill="#F2D295"/>
<g clip-path="url(#clip0_427_1609)">
<path d="M25.5 38C25.8238 38 26.1342 37.8714 26.3632 37.6425C26.5921 37.4135 26.7207 37.103 26.7207 36.7793V14.2207C26.7207 13.897 26.5921 13.5865 26.3632 13.3575C26.1342 13.1286 25.8238 13 25.5 13C25.1762 13 24.8658 13.1286 24.6368 13.3575C24.4079 13.5865 24.2793 13.897 24.2793 14.2207V36.7793C24.2793 37.103 24.4079 37.4135 24.6368 37.6425C24.8658 37.8714 25.1762 38 25.5 38Z" fill="#181C2A"/>
<path d="M14.2207 26.7207H36.7793C37.103 26.7207 37.4135 26.5921 37.6425 26.3632C37.8714 26.1342 38 25.8238 38 25.5C38 25.1762 37.8714 24.8658 37.6425 24.6368C37.4135 24.4079 37.103 24.2793 36.7793 24.2793H14.2207C13.897 24.2793 13.5865 24.4079 13.3575 24.6368C13.1286 24.8658 13 25.1762 13 25.5C13 25.8238 13.1286 26.1342 13.3575 26.3632C13.5865 26.5921 13.897 26.7207 14.2207 26.7207Z" fill="#181C2A"/>
</g>
<defs>
<clipPath id="clip0_427_1609">
<rect width="25" height="25" fill="white" transform="matrix(-1 0 0 1 38 13)"/>
</clipPath>
</defs>
</svg>
