<svg width="21" height="20" viewBox="0 0 21 20" fill="none" xmlns="http://www.w3.org/2000/svg">
<path d="M19.3052 7.54421L12.972 1.21875C12.1882 0.438275 11.1265 0 10.0196 0C8.9127 0 7.85098 0.438275 7.06715 1.21875L0.733944 7.54421C0.500509 7.77583 0.315434 8.05143 0.189449 8.35501C0.0634633 8.6586 -0.000927145 8.98414 1.00859e-05 9.31277V17.4985C1.00859e-05 18.1619 0.263918 18.7982 0.733676 19.2673C1.20343 19.7365 1.84056 20 2.5049 20H17.5343C18.1986 20 18.8357 19.7365 19.3055 19.2673C19.7752 18.7982 20.0392 18.1619 20.0392 17.4985V9.31277C20.0401 8.98414 19.9757 8.6586 19.8497 8.35501C19.7237 8.05143 19.5387 7.77583 19.3052 7.54421ZM12.5245 18.3323H7.51469V15.052C7.51469 14.3886 7.77859 13.7523 8.24835 13.2832C8.71811 12.8141 9.35524 12.5505 10.0196 12.5505C10.6839 12.5505 11.321 12.8141 11.7908 13.2832C12.2606 13.7523 12.5245 14.3886 12.5245 15.052V18.3323ZM18.3692 17.4985C18.3692 17.7196 18.2813 17.9317 18.1247 18.0881C17.9681 18.2445 17.7557 18.3323 17.5343 18.3323H14.1944V15.052C14.1944 13.9463 13.7546 12.8859 12.9716 12.104C12.1887 11.3221 11.1268 10.8829 10.0196 10.8829C8.91235 10.8829 7.85047 11.3221 7.06754 12.104C6.28461 12.8859 5.84476 13.9463 5.84476 15.052V18.3323H2.5049C2.28346 18.3323 2.07108 18.2445 1.91449 18.0881C1.75791 17.9317 1.66994 17.7196 1.66994 17.4985V9.31277C1.67071 9.09178 1.7586 8.88 1.91458 8.72325L8.24779 2.40029C8.71846 1.93245 9.3555 1.66981 10.0196 1.66981C10.6837 1.66981 11.3207 1.93245 11.7914 2.40029L18.1246 8.72575C18.28 8.88188 18.3678 9.09265 18.3692 9.31277V17.4985Z" fill="#F2D295"/>
</svg>
