<svg width="75" height="87" viewBox="0 0 75 87" fill="none" xmlns="http://www.w3.org/2000/svg">
<g clip-path="url(#clip0_304_2848)">
<path d="M37.5 22.2114C35.0277 22.2114 32.611 23.0473 30.5554 24.6133C28.4998 26.1793 26.8976 28.4051 25.9515 31.0093C25.0054 33.6135 24.7579 36.479 25.2402 39.2436C25.7225 42.0082 26.913 44.5476 28.6612 46.5407C30.4093 48.5339 32.6366 49.8912 35.0614 50.4411C37.4861 50.9911 39.9995 50.7088 42.2836 49.6301C44.5676 48.5515 46.5199 46.7248 47.8934 44.3811C49.2669 42.0374 50 39.2819 50 36.4632C50 32.6834 48.6831 29.0584 46.3388 26.3857C43.9946 23.7129 40.8152 22.2114 37.5 22.2114ZM37.5 43.5891C36.2639 43.5891 35.0555 43.1712 34.0277 42.3882C32.9999 41.6052 32.1988 40.4923 31.7258 39.1902C31.2527 37.8881 31.1289 36.4553 31.3701 35.073C31.6113 33.6907 32.2065 32.421 33.0806 31.4244C33.9547 30.4279 35.0683 29.7492 36.2807 29.4742C37.4931 29.1993 38.7497 29.3404 39.8918 29.8797C41.0338 30.4191 42.0099 31.3324 42.6967 32.5043C43.3835 33.6761 43.75 35.0538 43.75 36.4632C43.75 38.3531 43.0915 40.1656 41.9194 41.502C40.7473 42.8383 39.1576 43.5891 37.5 43.5891Z" fill="#F2D295"/>
<path d="M37.5 86.3442C34.8686 86.3596 32.2722 85.6559 29.9283 84.2922C27.5844 82.9284 25.5612 80.9442 24.0281 78.5058C12.1187 59.7754 6.07812 45.6946 6.07812 36.6518C6.07813 27.1503 9.38863 18.038 15.2814 11.3194C21.1741 4.60087 29.1664 0.826416 37.5 0.826416C45.8336 0.826416 53.8259 4.60087 59.7186 11.3194C65.6114 18.038 68.9219 27.1503 68.9219 36.6518C68.9219 45.6946 62.8813 59.7754 50.9719 78.5058C49.4388 80.9442 47.4156 82.9284 45.0717 84.2922C42.7278 85.6559 40.1314 86.3596 37.5 86.3442ZM37.5 8.60433C30.9763 8.61281 24.7219 11.5713 20.109 16.8307C15.496 22.0901 12.9012 29.221 12.8937 36.659C12.8937 43.8205 18.8094 57.064 29.5469 73.9488C30.4584 75.3803 31.6543 76.5454 33.0366 77.3487C34.4189 78.1521 35.9484 78.571 37.5 78.571C39.0516 78.571 40.5811 78.1521 41.9634 77.3487C43.3457 76.5454 44.5416 75.3803 45.4531 73.9488C56.1906 57.064 62.1063 43.8205 62.1063 36.659C62.0988 29.221 59.504 22.0901 54.891 16.8307C50.2781 11.5713 44.0237 8.61281 37.5 8.60433Z" fill="#F2D295"/>
</g>
<defs>
<clipPath id="clip0_304_2848">
<rect width="75" height="85.5107" fill="white" transform="translate(0 0.83374)"/>
</clipPath>
</defs>
</svg>
