<svg width="42" height="50" viewBox="0 0 42 50" fill="none" xmlns="http://www.w3.org/2000/svg">
<path d="M23.5259 25.0007L41.1967 3.40278C41.9259 2.5132 41.7926 1.2007 40.9009 0.471533C40.0092 -0.253467 38.6988 -0.126384 37.9697 0.767366L20.8342 21.7111L3.69673 0.765283C2.96548 -0.128467 1.65507 -0.255551 0.765484 0.46945C-0.126183 1.2007 -0.257433 2.51112 0.46965 3.4007L18.1426 25.0007L0.471734 46.5986C-0.257433 47.4882 -0.1241 48.8007 0.767567 49.5299C1.65298 50.2549 2.96757 50.1299 3.69882 49.234L20.8342 28.2903L37.9717 49.234C38.703 50.1299 40.0176 50.2528 40.903 49.5299C41.7947 48.7986 41.9259 47.4882 41.1988 46.5986L23.5259 25.0007Z" fill="#F2D295"/>
</svg>
