<svg width="37" height="24" viewBox="0 0 37 24" fill="none" xmlns="http://www.w3.org/2000/svg">
<g clip-path="url(#clip0_351_40)">
<g clip-path="url(#clip1_351_40)">
<path d="M19.0838 4.93007L6.89175 17.1221C6.4261 17.5852 6.05693 18.1361 5.80564 18.7429C5.55434 19.3497 5.4259 20.0003 5.42775 20.6571V22.0001C5.42775 22.2653 5.53311 22.5196 5.72065 22.7072C5.90818 22.8947 6.16254 23.0001 6.42775 23.0001H7.77075C8.42752 23.0019 9.07812 22.8735 9.68491 22.6222C10.2917 22.3709 10.8426 22.0017 11.3058 21.5361L23.4978 9.34407C24.0821 8.75824 24.4103 7.96455 24.4103 7.13707C24.4103 6.3096 24.0821 5.5159 23.4978 4.93007C22.9034 4.36197 22.1129 4.04492 21.2908 4.04492C20.4686 4.04492 19.6781 4.36197 19.0838 4.93007ZM22.0838 7.93007L9.89175 20.1221C9.32788 20.6825 8.56576 20.998 7.77075 21.0001H7.42775V20.6571C7.42984 19.8621 7.74532 19.0999 8.30575 18.5361L20.4978 6.34407C20.7113 6.14003 20.9954 6.02617 21.2908 6.02617C21.5861 6.02617 21.8702 6.14003 22.0838 6.34407C22.2937 6.55459 22.4116 6.83976 22.4116 7.13707C22.4116 7.43438 22.2937 7.71956 22.0838 7.93007Z" fill="#F2D295"/>
</g>
</g>
<defs>
<clipPath id="clip0_351_40">
<rect width="36.5714" height="24" fill="white" transform="translate(0.427734)"/>
</clipPath>
<clipPath id="clip1_351_40">
<rect width="24" height="24" fill="white" transform="translate(0.427734 4)"/>
</clipPath>
</defs>
</svg>
