<svg width="76" height="56" viewBox="0 0 76 56" fill="none" xmlns="http://www.w3.org/2000/svg">
<path d="M74.4103 8.74379C73.5363 5.30258 70.9618 2.59002 67.6907 1.66927C61.7658 5.96046e-07 38 0 38 0C38 0 14.2342 5.96046e-07 8.30617 1.66927C5.03817 2.59002 2.46367 5.29927 1.58967 8.74379C0 14.9837 0 28 0 28C0 28 0 41.0163 1.58967 47.2562C2.46367 50.6974 5.03817 53.41 8.30933 54.3307C14.2342 56 38 56 38 56C38 56 61.7658 56 67.6938 54.3307C70.9618 53.41 73.5363 50.7007 74.4135 47.2562C76 41.0163 76 28 76 28C76 28 76 14.9837 74.4103 8.74379ZM30.229 39.8207V16.1793L50.0903 28L30.229 39.8207Z" fill="white"/>
</svg>
