<svg width="15" height="16" viewBox="0 0 15 16" fill="none" xmlns="http://www.w3.org/2000/svg">
<path d="M7.5 15.5C7.30575 15.5 7.11946 15.4228 6.9821 15.2855C6.84474 15.1481 6.76758 14.9618 6.76758 14.7676V1.23242C6.76758 1.03817 6.84474 0.851877 6.9821 0.714521C7.11946 0.577166 7.30575 0.5 7.5 0.5C7.69425 0.5 7.88054 0.577166 8.0179 0.714521C8.15526 0.851877 8.23242 1.03817 8.23242 1.23242V14.7676C8.23242 14.9618 8.15526 15.1481 8.0179 15.2855C7.88054 15.4228 7.69425 15.5 7.5 15.5Z" fill="#181C2A"/>
<path d="M14.2676 8.71484H0.732422C0.538172 8.71484 0.351877 8.63768 0.214521 8.50032C0.0771657 8.36297 0 8.17667 0 7.98242C0 7.78817 0.0771657 7.60188 0.214521 7.46452C0.351877 7.32717 0.538172 7.25 0.732422 7.25H14.2676C14.4618 7.25 14.6481 7.32717 14.7855 7.46452C14.9228 7.60188 15 7.78817 15 7.98242C15 8.17667 14.9228 8.36297 14.7855 8.50032C14.6481 8.63768 14.4618 8.71484 14.2676 8.71484Z" fill="#181C2A"/>
</svg>
