<svg width="60" height="60" viewBox="0 0 60 60" fill="none" xmlns="http://www.w3.org/2000/svg">
<g opacity="0.3">
<path d="M25.4367 35.6978C27.5131 25.0053 37.3084 20.146 47.3052 22.0395C46.159 16.0403 40.5424 11.135 36.8928 6.57509C36.3752 5.92847 36.1084 4.79129 36.8928 4.18198C38.8168 2.68729 40.6124 2.22191 42.2666 2.45787C42.3813 2.14388 42.685 1.9098 43.0795 2.03384C48.951 3.88261 52.7533 10.1545 55.2972 15.3523C58.654 22.2127 60.338 30.1546 59.9435 37.7779C59.3214 49.7963 48.591 61.2563 35.8131 57.9197C26.4847 55.484 23.837 43.9366 25.4367 35.6978ZM49.3449 45.315C49.3439 45.311 49.3414 45.3085 49.3405 45.3048C49.2821 45.0794 49.232 44.8518 49.1788 44.6246C49.006 44.8478 48.849 45.0955 48.7104 45.3651C48.9295 45.3937 49.1428 45.412 49.3467 45.4164C49.348 45.3809 49.3436 45.3492 49.3449 45.315ZM52.0476 17.1106C51.8934 17.1765 51.7299 17.2182 51.5595 17.234C52.0588 18.2351 52.5192 19.2535 52.9339 20.2946C53.0965 20.2477 53.2668 20.2203 53.4406 20.2206C53.0185 19.1667 52.5459 18.1331 52.0476 17.1106ZM53.3293 47.618C52.9277 48.033 52.4968 48.4306 52.0482 48.8136C52.1154 48.9003 52.1723 48.9936 52.2204 49.0915C52.6202 48.6237 52.9976 48.1374 53.3293 47.618ZM41.8046 47.5766C42.3194 46.9045 42.7083 46.1625 42.9527 45.352C42.9586 45.2923 42.9781 45.2326 43.0105 45.1729C43.0857 44.8941 43.1451 44.6078 43.183 44.3118C42.3387 45.4596 41.66 46.7379 41.0305 48.0299C41.3019 47.9058 41.5593 47.7535 41.8046 47.5766Z" fill="#F2D295"/>
<path d="M23.4895 19.8538C22.3595 15.2896 19.2775 12.1388 17.0385 8.02255C16.6745 7.35324 16.8175 6.31243 17.5798 5.95835C18.9734 5.3108 20.2259 4.59237 21.6193 4.05922C22.0411 3.15986 23.3145 2.56951 24.2894 3.44804C26.0132 5.00148 27.8952 6.99387 29.3989 9.21973C31.3929 11.6657 32.8247 14.6345 33.3004 17.4902C33.3567 17.8285 33.2982 18.1714 33.1658 18.4841C33.2376 18.6088 33.3097 18.7319 33.3818 18.8568C33.7459 19.4876 33.5385 20.3354 32.8984 20.7006C25.3087 25.028 22.1692 32.0743 22.3927 39.4986C22.777 40.5817 22.8746 41.7515 22.7282 42.9275C23.3425 46.6636 24.7492 50.4047 26.8267 53.8597C27.2937 54.636 27.1196 55.3625 26.6638 55.8549C26.5445 56.2435 26.2308 56.5721 25.6669 56.6996C13.567 59.4328 1.39411 53.6421 0.0812836 40.4405C-1.14045 28.156 11.6564 17.8033 23.4895 19.8538ZM18.8864 53.9909C18.8438 53.9508 18.8059 53.9067 18.7639 53.8656C17.6531 53.7795 16.6378 53.4674 15.7752 52.9653C15.7652 53.0082 15.7587 53.0477 15.7484 53.0909C15.7204 53.2094 15.6601 53.2992 15.6119 53.4006C16.6795 53.672 17.7747 53.8737 18.8864 53.9909ZM10.3041 30.8951C10.4188 31.1056 10.5195 31.317 10.6209 31.5287C10.6289 31.4696 10.6302 31.4087 10.6392 31.3496C10.624 30.9125 10.5469 30.4621 10.4281 30.0029C10.4154 30.0116 10.4011 30.0191 10.3883 30.0278C10.3274 30.2808 10.2777 30.5389 10.2388 30.8016C10.259 30.8339 10.2851 30.8609 10.3041 30.8951ZM4.52337 44.1427C4.51871 43.8542 4.52337 43.5636 4.53363 43.271C4.344 42.949 4.16928 42.6185 4.02068 42.2766C4.14255 42.9297 4.32006 43.5452 4.52337 44.1427Z" fill="#F2D295"/>
</g>
</svg>
