<svg width="23" height="20" viewBox="0 0 23 20" fill="none" xmlns="http://www.w3.org/2000/svg">
<path d="M21.9015 12.3795H21.2664C21.0284 12.3795 20.7922 12.3976 20.557 12.4338L13.8478 7.4024L15.4552 5.86364C15.8351 5.4999 15.8484 4.89621 15.4847 4.51723C15.12 4.13731 14.5163 4.12493 14.1383 4.48772L10.1647 8.29175C9.96667 8.48981 9.6972 8.5917 9.4144 8.56789C9.13064 8.54504 8.88117 8.40126 8.71072 8.16321C8.44982 7.80137 8.5298 7.23481 8.87069 6.89297L13.3489 2.67568C14.1973 1.87869 15.5237 1.68349 16.5616 2.20434L18.7669 3.30699C19.4239 3.6355 20.1609 3.8088 20.8951 3.8088H21.9006C22.4272 3.8088 22.8528 3.38317 22.8528 2.8566C22.8528 2.33003 22.4272 1.9044 21.9006 1.9044H20.8951C20.4542 1.9044 20.0114 1.80061 19.6172 1.6035L17.4138 0.500857C15.677 -0.368501 13.4593 -0.0457056 12.0425 1.28928L11.454 1.84346L10.7875 1.23596C9.9124 0.438964 8.77928 0 7.55951 0C6.82537 0 6.09313 0.1733 5.43896 0.499905L3.23557 1.60255C2.84041 1.79966 2.39764 1.90345 1.95677 1.90345H0.953152C0.426586 1.90345 0.0009522 2.32908 0.0009522 2.85565C0.0009522 3.38221 0.426586 3.80785 0.953152 3.80785H1.95867C2.69282 3.80785 3.42982 3.63359 4.08779 3.30604L6.29309 2.20339C7.26624 1.71396 8.6336 1.84631 9.50581 2.64331L10.0648 3.15273L7.54523 5.52561C6.52352 6.54637 6.36069 8.16035 7.16625 9.27538C7.6614 9.96382 8.64502 10.4742 9.49343 10.4742C10.2485 10.4742 10.9731 10.1771 11.4969 9.65245L12.4548 8.73548L18.4974 13.267C18.4679 13.2879 12.5957 17.6909 12.5957 17.6909C11.9073 18.2261 10.9465 18.2261 10.2438 17.6804L4.44392 13.3308C3.62598 12.7166 2.61093 12.3786 1.58732 12.3786H0.9522C0.425633 12.3786 0 12.8042 0 13.3308C0 13.8574 0.425633 14.283 0.9522 14.283H1.58732C2.20149 14.283 2.80994 14.4858 3.30128 14.8543L9.08779 19.1944C9.77814 19.7315 10.6056 20 11.4312 20C12.252 20 13.0718 19.7343 13.7517 19.2049L19.5534 14.8553C20.0438 14.4868 20.6523 14.2839 21.2664 14.2839H21.9015C22.4281 14.2839 22.8537 13.8583 22.8537 13.3317C22.8537 12.8052 22.4281 12.3795 21.9015 12.3795Z" fill="white"/>
</svg>
