<svg width="19" height="20" viewBox="0 0 19 20" fill="none" xmlns="http://www.w3.org/2000/svg">
<path d="M16.1654 5.83333H15.332V2.5C15.332 1.12167 14.2104 0 12.832 0H6.16537C4.78703 0 3.66536 1.12167 3.66536 2.5V5.83333H2.83203C1.4537 5.83333 0.332031 6.955 0.332031 8.33333V15.8333H8.66537V18.3333H4.4987V20H14.4987V18.3333H10.332V15.8333H18.6654V8.33333C18.6654 6.955 17.5437 5.83333 16.1654 5.83333ZM16.1654 7.5C16.6245 7.5 16.9987 7.87333 16.9987 8.33333V10.9767C16.7379 10.8842 16.4579 10.8333 16.1654 10.8333H15.332V7.5H16.1654ZM6.16537 1.66667H12.832C13.2912 1.66667 13.6654 2.04 13.6654 2.5V10.8333H5.33203V2.5C5.33203 2.04 5.7062 1.66667 6.16537 1.66667ZM2.83203 7.5H3.66536V10.8333H2.83203C2.53953 10.8333 2.25953 10.8842 1.9987 10.9767V8.33333C1.9987 7.87333 2.37286 7.5 2.83203 7.5ZM16.9987 14.1667H1.9987V13.3333C1.9987 12.8733 2.37286 12.5 2.83203 12.5H16.1654C16.6245 12.5 16.9987 12.8733 16.9987 13.3333V14.1667Z" fill="white"/>
</svg>
