<svg width="24" height="24" viewBox="0 0 24 24" fill="none" xmlns="http://www.w3.org/2000/svg">
<g clip-path="url(#clip0_427_1808)">
<path d="M18.656 4.93007L6.46402 17.1221C5.99836 17.5852 5.6292 18.1361 5.3779 18.7429C5.1266 19.3497 4.99817 20.0003 5.00002 20.6571V22.0001C5.00002 22.2653 5.10538 22.5196 5.29291 22.7072C5.48045 22.8947 5.7348 23.0001 6.00002 23.0001H7.34302C7.99978 23.0019 8.65039 22.8735 9.25718 22.6222C9.86396 22.3709 10.4149 22.0017 10.878 21.5361L23.07 9.34407C23.6544 8.75824 23.9826 7.96455 23.9826 7.13707C23.9826 6.3096 23.6544 5.5159 23.07 4.93007C22.4757 4.36197 21.6852 4.04492 20.863 4.04492C20.0408 4.04492 19.2503 4.36197 18.656 4.93007ZM21.656 7.93007L9.46402 20.1221C8.90015 20.6825 8.13803 20.998 7.34302 21.0001H7.00002V20.6571C7.0021 19.8621 7.31759 19.0999 7.87802 18.5361L20.07 6.34407C20.2836 6.14003 20.5676 6.02617 20.863 6.02617C21.1584 6.02617 21.4424 6.14003 21.656 6.34407C21.866 6.55459 21.9839 6.83976 21.9839 7.13707C21.9839 7.43438 21.866 7.71956 21.656 7.93007Z" fill="white"/>
</g>
<defs>
<clipPath id="clip0_427_1808">
<rect width="24" height="24" fill="white"/>
</clipPath>
</defs>
</svg>
