<svg width="43" height="30" viewBox="0 0 43 30" fill="none" xmlns="http://www.w3.org/2000/svg">
<rect x="4.19922" y="6" width="33.6" height="18" fill="#FF0000"/>
<path d="M41.6927 4.68417C41.203 2.84067 39.7605 1.38751 37.9276 0.894252C34.6079 3.17271e-07 21.2917 0 21.2917 0C21.2917 0 7.97551 3.17271e-07 4.65401 0.894252C2.82292 1.38751 1.38041 2.83889 0.890702 4.68417C0 8.02697 0 15 0 15C0 15 0 21.973 0.890702 25.3158C1.38041 27.1593 2.82292 28.6125 4.65578 29.1058C7.97551 30 21.2917 30 21.2917 30C21.2917 30 34.6079 30 37.9294 29.1058C39.7605 28.6125 41.203 27.1611 41.6945 25.3158C42.5834 21.973 42.5834 15 42.5834 15C42.5834 15 42.5834 8.02697 41.6927 4.68417ZM16.9375 21.3325V8.66749L28.066 15L16.9375 21.3325Z" fill="white"/>
</svg>
