<svg width="15" height="15" viewBox="0 0 15 15" fill="none" xmlns="http://www.w3.org/2000/svg">
<path d="M8.1139 0.627028C8.1139 0.460995 8.17986 0.301762 8.29726 0.184359C8.41467 0.0669561 8.5739 0.000999747 8.73993 0.000999747C10.3997 0.00282249 11.991 0.662971 13.1646 1.83661C14.3382 3.01024 14.9984 4.60151 15.0002 6.26128C15.0002 6.42732 14.9343 6.58655 14.8169 6.70395C14.6995 6.82136 14.5402 6.88731 14.3742 6.88731C14.2082 6.88731 14.0489 6.82136 13.9315 6.70395C13.8141 6.58655 13.7482 6.42732 13.7482 6.26128C13.7467 4.93348 13.2185 3.66048 12.2796 2.72158C11.3407 1.78268 10.0677 1.25455 8.73993 1.25306C8.5739 1.25306 8.41467 1.1871 8.29726 1.0697C8.17986 0.952294 8.1139 0.793061 8.1139 0.627028ZM8.73993 3.75717C9.40407 3.75717 10.041 4.021 10.5106 4.49061C10.9802 4.96022 11.244 5.59715 11.244 6.26128C11.244 6.42732 11.31 6.58655 11.4274 6.70395C11.5448 6.82136 11.704 6.88731 11.8701 6.88731C12.0361 6.88731 12.1953 6.82136 12.3127 6.70395C12.4301 6.58655 12.4961 6.42732 12.4961 6.26128C12.4951 5.26539 12.0991 4.31057 11.3948 3.60637C10.6906 2.90217 9.73583 2.50611 8.73993 2.50511C8.5739 2.50511 8.41467 2.57107 8.29726 2.68847C8.17986 2.80588 8.1139 2.96511 8.1139 3.13114C8.1139 3.29717 8.17986 3.45641 8.29726 3.57381C8.41467 3.69121 8.5739 3.75717 8.73993 3.75717ZM14.4324 10.4801C14.7952 10.8439 14.9989 11.3367 14.9989 11.8505C14.9989 12.3642 14.7952 12.857 14.4324 13.2208L13.8627 13.8775C8.73555 18.7862 -3.74119 6.31262 1.09175 1.16917L1.81168 0.54314C2.17588 0.190484 2.66429 -0.00460378 3.17123 8.25165e-05C3.67817 0.00476882 4.16288 0.208853 4.5205 0.568181C4.53991 0.587588 5.69994 2.09444 5.69994 2.09444C6.04415 2.45605 6.23576 2.9364 6.23494 3.43564C6.23413 3.93488 6.04095 4.41461 5.69556 4.77509L4.97062 5.68659C5.37181 6.66139 5.96166 7.5473 6.70629 8.29343C7.45091 9.03956 8.33563 9.6312 9.30962 10.0344L10.2267 9.30503C10.5873 8.95991 11.0669 8.76696 11.566 8.76626C12.0651 8.76556 12.5453 8.95717 12.9068 9.30128C12.9068 9.30128 14.413 10.4607 14.4324 10.4801ZM13.571 11.3903C13.571 11.3903 12.0729 10.2378 12.0535 10.2184C11.9245 10.0905 11.7503 10.0188 11.5686 10.0188C11.387 10.0188 11.2128 10.0905 11.0838 10.2184C11.0669 10.2359 9.80418 11.242 9.80418 11.242C9.71909 11.3097 9.61782 11.3541 9.51035 11.3708C9.40288 11.3875 9.29292 11.3759 9.1913 11.3371C7.92951 10.8673 6.78343 10.1319 5.83068 9.1805C4.87792 8.22915 4.14075 7.08416 3.6691 5.82306C3.62728 5.72005 3.61365 5.60777 3.6296 5.49774C3.64556 5.38772 3.69052 5.28393 3.75988 5.19704C3.75988 5.19704 4.76591 3.93371 4.78281 3.91743C4.91069 3.78846 4.98244 3.6142 4.98244 3.43257C4.98244 3.25095 4.91069 3.07669 4.78281 2.94772C4.7634 2.92893 3.61088 1.4296 3.61088 1.4296C3.47998 1.31222 3.30914 1.24936 3.13338 1.2539C2.95762 1.25844 2.79025 1.33003 2.66558 1.45401L1.94565 2.08004C-1.5864 6.32702 9.22573 16.5394 12.9475 13.0224L13.5178 12.3651C13.6514 12.2413 13.7317 12.0704 13.7416 11.8885C13.7516 11.7066 13.6904 11.5279 13.571 11.3903Z" fill="#456277"/>
</svg>
