<svg width="24" height="25" viewBox="0 0 24 25" fill="none" xmlns="http://www.w3.org/2000/svg">
<path d="M0.993164 24.0538L2.61803 18.1202C1.61553 16.3838 1.08853 14.4137 1.0891 12.3959C1.09158 6.08259 6.22941 0.946289 12.5422 0.946289C15.6061 0.947624 18.4818 2.1401 20.6438 4.30437C22.8064 6.46864 23.9965 9.34549 23.9954 12.4049C23.9927 18.7184 18.8547 23.8553 12.5427 23.8553C12.5429 23.8553 12.5422 23.8553 12.5427 23.8553H12.5376C10.6209 23.8545 8.73738 23.3735 7.06464 22.4618L0.993164 24.0538Z" fill="#F2D295"/>
<path fill-rule="evenodd" clip-rule="evenodd" d="M9.57902 7.43422C9.357 6.9406 9.12316 6.93068 8.91183 6.9221C8.73902 6.91466 8.54123 6.91504 8.34382 6.91504C8.14622 6.91504 7.82502 6.98943 7.55341 7.28602C7.28162 7.58261 6.51562 8.29978 6.51562 9.75833C6.51562 11.2171 7.57802 12.6264 7.72622 12.8244C7.87442 13.0222 9.777 16.1109 12.79 17.2992C15.2942 18.2868 15.8037 18.0904 16.3472 18.041C16.8908 17.9916 18.1011 17.3238 18.3481 16.6316C18.5952 15.9395 18.5952 15.3463 18.5211 15.2221C18.4469 15.0987 18.2493 15.0245 17.9529 14.8763C17.6564 14.7281 16.199 14.0108 15.9272 13.912C15.6554 13.813 15.4578 13.7638 15.2602 14.0605C15.0625 14.3569 14.4948 15.0245 14.3218 15.2221C14.1488 15.4203 13.9758 15.4451 13.6794 15.2967C13.383 15.1481 12.4282 14.8353 11.2956 13.8254C10.4144 13.0397 9.81934 12.0693 9.64635 11.7725C9.47354 11.4761 9.64349 11.3296 9.77662 11.1677C10.0164 10.876 10.4186 10.3517 10.5174 10.1541C10.6162 9.95612 10.5668 9.78312 10.4928 9.63473C10.4186 9.48653 9.84242 8.02054 9.57902 7.43422Z" fill="#181C2A"/>
</svg>
